<svg width="479.7" height="115.62" viewBox="0 0 390 94" class="css-1j8o68f"><defs id="SvgjsDefs3563"></defs><g id="SvgjsG3564" featurekey="rootContainer" transform="matrix(1,0,0,1,0,0)" fill="#111111"><rect width="390" height="94" rx="10"></rect></g><g id="SvgjsG3565" featurekey="UxBHKT-0" transform="matrix(3.29442777708638,0,0,3.29442777708638,17.16679186821535,0.7021876574720629)" fill="#ffffff"><path d="M3.86 19.51 q-1.38 -0.77 -2.19 -2.09 t-0.81 -2.88 t0.81 -2.87 t2.18 -2.08 t2.99 -0.77 q1.74 0 3.15 0.83 t2.25 2.37 l-2.7 1.06 q-0.48 -0.82 -1.18 -1.23 t-1.52 -0.41 q-1.3 0 -2.15 0.88 t-0.85 2.22 t0.86 2.22 t2.16 0.88 q1.8 0 2.78 -1.6 l2.54 1 q-1.58 3.24 -5.32 3.24 q-1.62 0 -3 -0.77 z M16.630000000000003 19.49 q-1.37 -0.77 -2.17 -2.09 t-0.8 -2.88 q0 -1.54 0.8 -2.86 t2.17 -2.09 t2.99 -0.77 t3 0.77 t2.19 2.09 t0.81 2.86 q0 1.56 -0.81 2.88 t-2.19 2.09 t-3 0.77 t-2.99 -0.77 z M18.1 11.83 q-0.7 0.41 -1.1 1.12 t-0.4 1.57 q0 0.9 0.39 1.61 t1.08 1.12 t1.55 0.41 q0.84 0 1.53 -0.41 t1.09 -1.13 t0.4 -1.6 q0 -0.86 -0.4 -1.57 t-1.09 -1.12 t-1.53 -0.41 q-0.82 0 -1.52 0.41 z M36.4 18.9 q-0.38 0.52 -1.31 0.93 t-2.03 0.41 q-1.7 0 -2.95 -0.76 t-1.91 -2.07 t-0.66 -2.91 t0.66 -2.91 t1.91 -2.07 t2.95 -0.76 q1.14 0 2.01 0.39 t1.33 0.99 l0 -5.26 l2.96 0 l0 15.12 l-2.96 0 l0 -1.1 z M35.7 12.25 q-0.82 -0.87 -2.2 -0.87 q-1.4 0 -2.21 0.87 t-0.81 2.25 q0 1.34 0.83 2.22 t2.19 0.88 q1.4 0 2.21 -0.83 t0.81 -2.27 q0 -1.38 -0.82 -2.25 z M45.129999999999995 19.74 q-1.37 -0.54 -2.35 -1.83 t-0.98 -3.37 t0.99 -3.36 t2.37 -1.82 t2.62 -0.54 q1.44 0 2.74 0.64 t2.13 1.88 t0.87 2.94 q0 0.52 -0.02 0.9 t-0.04 0.48 l-8.68 0 q0.24 1.16 1.2 1.58 t1.8 0.42 q1.08 0 1.72 -0.39 t1.1 -0.89 l2.32 1.34 q-1.88 2.56 -5.14 2.56 q-1.28 0 -2.65 -0.54 z M45.739999999999995 12.05 q-0.78 0.61 -0.88 1.49 l5.5 0 q-0.06 -0.52 -0.4 -1 t-0.91 -0.79 t-1.29 -0.31 q-1.24 0 -2.02 0.61 z M59.14 10.49 q-0.6 1.63 -0.6 3.57 t0.6 3.56 t1.78 2.82 q0.58 0.54 1.26 1 l-1.84 2.34 q-1.06 -0.76 -1.7 -1.44 l0 0.02 q-3.28 -3.28 -3.28 -8.3 q0 -5 3.28 -8.32 l0 0.02 q0.74 -0.76 1.7 -1.42 l1.84 2.3 q-0.96 0.7 -1.26 1 l0 0.02 q-1.18 1.2 -1.78 2.83 z M63.54 18.54 l1.56 -2.08 q0.72 0.5 1.68 0.84 t1.88 0.34 q0.68 0 1.13 -0.28 t0.45 -0.7 t-0.51 -0.59 t-0.99 -0.24 t-0.62 -0.09 q-1.2 -0.2 -2.07 -0.48 t-1.58 -1 t-0.71 -1.98 q0 -2.08 1.51 -2.78 t3.03 -0.7 q1.3 0 2.4 0.38 t2.18 1.2 l-1.56 2.04 q-0.78 -0.46 -1.54 -0.74 t-1.58 -0.28 q-0.5 0 -0.97 0.22 t-0.47 0.6 q0 0.48 0.65 0.68 t1.43 0.3 q1.4 0.24 2.24 0.5 t1.49 0.97 t0.65 2.01 q0 1.72 -1.18 2.65 t-3.34 0.93 q-3 0 -5.16 -1.72 z M75.58 15.54 l0 -6.5 l3.02 0 l0 6.5 q0 1.18 0.59 1.69 t1.55 0.51 q0.84 0 1.5 -0.65 t0.6 -2.23 l0 -5.82 l3 0 l0 10.96 l-3 0 l0 -0.94 q-0.54 0.56 -1.31 0.87 t-1.63 0.31 q-4.32 0 -4.32 -4.7 z M94 11.87 q-0.86 0.21 -1.58 0.99 t-0.72 2.28 l0 4.86 l-2.98 0 l0 -11 l2.98 0 l0 1.46 q0.74 -0.98 1.81 -1.33 t1.95 -0.33 l0 2.92 q-0.6 -0.06 -1.46 0.15 z M95.86 6.640000000000001 l1.84 -2.3 q0.96 0.66 1.7 1.42 l0 -0.02 q3.26 3.3 3.26 8.32 q0 5.04 -3.26 8.3 l0 -0.02 q-0.64 0.68 -1.7 1.44 l-1.84 -2.34 q0.72 -0.48 1.24 -1 q1.18 -1.2 1.79 -2.82 t0.61 -3.56 t-0.61 -3.57 t-1.79 -2.83 l0 -0.02 q-0.28 -0.3 -1.24 -1 z M106.61 14.15 q-0.49 0.47 -1.17 0.47 t-1.16 -0.47 t-0.48 -1.11 q0 -0.66 0.48 -1.13 t1.16 -0.47 t1.17 0.47 t0.49 1.13 q0 0.64 -0.49 1.11 z M107.1 19.02 q0 1.12 -0.76 2.08 t-2.06 1.24 l-0.46 -1 q0.56 -0.18 0.92 -0.49 t0.48 -0.69 q-0.66 -0.02 -1.08 -0.48 t-0.42 -1.1 q0 -0.66 0.47 -1.14 t1.15 -0.48 q0.6 0 1.06 0.36 t0.6 0.96 q0.1 0.4 0.1 0.74 z"></path></g></svg>